#!OML:ASF E:\Style4\Style4.ASF
:FULLY-SPECIFIED
:DEGREES
2019
root 0.0339476 16.6565 0.720308 -11.5838 5.99487 3.68127
lowerback 7.51952 2.57348 -0.714204
upperback 6.67998 3.39654 1.12896
thorax 2.59258 1.66294 1.38887
lowerneck 4.53963 -3.15597 -6.5319
upperneck 6.6771 -4.54645 3.31273
head 1.57802 -2.37429 2.17062
rclavicle 7.40473e-015 5.56597e-015
rhumerus -15.8716 12.7746 -89.1307
rradius 126.892
rwrist 26.1662
rhand 40.0882 -7.22334
rfingers 7.12502
rthumb 62.4682 -18.1218
lclavicle 7.40473e-015 5.56597e-015
lhumerus -14.7826 -14.7071 92.339
lradius 129.002
lwrist -18.0745
lhand 23.6801 44.0597
lfingers 7.12502
lthumb 47.9466 66.2974
rfemur -2.25032 -4.43347 13.9255
rtibia 50.1654
rfoot -31.8095 -20.8521
rtoes -15.4365
lfemur -3.38301 -2.99137 -23.0823
ltibia 47.5643
lfoot -30.6473 9.02238
ltoes -18.0638
2020
root 0.0309391 16.6795 0.735209 -11.4634 5.98 3.63514
lowerback 7.08675 2.59095 -0.715349
upperback 6.73314 3.42104 1.19645
thorax 2.88242 1.67124 1.4809
lowerneck 4.45705 -3.16822 -6.51722
upperneck 6.7012 -4.55221 3.20198
head 1.59662 -2.37764 2.12969
rclavicle -1.43125e-014 -2.38542e-015
rhumerus -15.8055 12.6942 -88.9221
rradius 126.826
rwrist 26.1603
rhand 40.4886 -7.34403
rfingers 7.12502
rthumb 62.799 -17.8063
lclavicle -1.43125e-014 -2.38542e-015
lhumerus -14.6481 -14.7424 92.3333
lradius 129.036
lwrist -18.0518
lhand 23.9238 44.1839
lfingers 7.12502
lthumb 48.1713 66.3164
rfemur -2.13407 -4.43529 14.0049
rtibia 49.7921
rfoot -31.6763 -20.9407
rtoes -15.5284
lfemur -3.26274 -2.93404 -22.9839
ltibia 47.199
lfoot -30.6277 8.76758
ltoes -17.1155
2021
root 0.0269477 16.7042 0.746951 -11.2484 5.98642 3.56276
lowerback 6.81896 2.57967 -0.667089
upperback 6.60701 3.40874 1.21193
thorax 2.90049 1.66643 1.47952
lowerneck 4.44465 -3.15159 -6.45132
upperneck 6.77939 -4.52409 3.11977
head 1.61807 -2.3637 2.09018
rclavicle -2.47487e-014 2.38542e-014
rhumerus -15.8841 12.6228 -88.8479
rradius 126.804
rwrist 26.1183
rhand 40.6432 -7.51579
rfingers 7.12502
rthumb 62.9262 -17.8067
lclavicle -2.47487e-014 2.38542e-014
lhumerus -14.6824 -14.7913 92.2083
lradius 129.062
lwrist -17.9256
lhand 23.8774 44.187
lfingers 7.12502
lthumb 48.1286 66.3396
rfemur -2.13711 -4.39859 14.1521
rtibia 49.4066
rfoot -31.5468 -21.0054
rtoes -15.3366
lfemur -3.26779 -2.93487 -22.8581
ltibia 46.8228
lfoot -30.5072 8.86187
ltoes -17.698
2022
root 0.0241513 16.7282 0.755339 -10.9491 6.0112 3.55487
lowerback 6.41956 2.55196 -0.73165
upperback 6.49803 3.37014 1.24413
thorax 3.0033 1.6429 1.56624
lowerneck 4.44216 -3.1254 -6.47642
upperneck 6.82625 -4.48688 3.05077
head 1.6304 -2.34704 2.07187
rclavicle 2.50966e-014 5.56597e-015
rhumerus -15.863 12.6447 -88.7185
rradius 126.811
rwrist 26.0572
rhand 40.5235 -7.66687
rfingers 7.12502
rthumb 62.8277 -18.0905
lclavicle 2.50966e-014 5.56597e-015
lhumerus -14.5864 -14.7915 92.0725
lradius 129.084
lwrist -17.685
lhand 23.6966 44.1539
lfingers 7.12502
lthumb 47.9619 66.3844
rfemur -2.23665 -4.33473 14.2303
rtibia 49.0121
rfoot -31.466 -20.9447
rtoes -14.753
lfemur -3.3798 -2.97002 -22.8215
ltibia 46.4444
lfoot -30.3563 8.83228
ltoes -17.6384
2023
root 0.0209512 16.7523 0.763817 -10.6884 6.0223 3.5776
lowerback 6.13983 2.52326 -0.781289
upperback 6.34904 3.33113 1.24035
thorax 3.00128 1.62157 1.60013
lowerneck 4.38449 -3.1025 -6.43617
upperneck 6.97818 -4.44529 2.89886
head 1.68171 -2.3284 2.01312
rclavicle 2.68856e-014 -1.19271e-014
rhumerus -15.9404 12.6945 -88.6471
rradius 126.912
rwrist 25.949
rhand 40.2551 -7.70739
rfingers 7.12502
rthumb 62.6063 -18.4253
lclavicle 2.68856e-014 -1.19271e-014
lhumerus -14.5455 -14.7813 91.8557
lradius 129.21
lwrist -17.323
lhand 23.5305 44.0982
lfingers 7.12502
lthumb 47.8087 66.3998
rfemur -2.27482 -4.28791 14.2604
rtibia 48.6083
rfoot -31.3751 -20.8539
rtoes -14.3996
lfemur -3.45247 -2.98946 -22.8203
ltibia 46.0489
lfoot -30.1089 8.79138
ltoes -17.2812
2024
root 0.0158362 16.7814 0.773032 -10.4206 6.04108 3.52516
lowerback 5.90751 2.49982 -0.691014
upperback 6.16572 3.30456 1.19377
thorax 2.947 1.61324 1.50812
lowerneck 4.22822 -3.09166 -6.32973
upperneck 7.23994 -4.41502 2.80133
head 1.78622 -2.31376 1.95865
rclavicle -2.87741e-014 1.19271e-014
rhumerus -16.0409 12.5829 -88.6805
rradius 127.025
rwrist 25.8745
rhand 39.9697 -7.5506
rfingers 7.12502
rthumb 62.3701 -18.5759
lclavicle -2.87741e-014 1.19271e-014
lhumerus -14.4833 -14.8443 91.5417
lradius 129.323
lwrist -16.8989
lhand 23.1486 43.8807
lfingers 7.12502
lthumb 47.4561 66.3433
rfemur -2.31462 -4.20932 14.4051
rtibia 48.1839
rfoot -31.2996 -20.8275
rtoes -14.0561
lfemur -3.51614 -3.06354 -22.7299
ltibia 45.6276
lfoot -30.0529 8.55107
ltoes -16.1795
